<?xml version="1.0" encoding="utf-8"?>
<!-- Svg Vector Icons : http://www.onlinewebfonts.com/icon -->
<!DOCTYPE svg PUBLIC "-//W3C//DTD SVG 1.1//EN" "http://www.w3.org/Graphics/SVG/1.1/DTD/svg11.dtd">
<svg version="1.1" xmlns="http://www.w3.org/2000/svg" xmlns:xlink="http://www.w3.org/1999/xlink" x="0px" y="0px" viewBox="0 0 1000 1000" enable-background="new 0 0 1000 1000" xml:space="preserve">
<metadata> Svg Vector Icons : http://www.onlinewebfonts.com/icon </metadata>
<g><path d="M985.9,281.4L985.9,281.4L848.1,587.7l0,0c-6.7,15.1-21.5,25.8-38.8,27l0,0l-396.9,26.5l22.9,65.5h432.2c50.7,0,91.8,41.1,91.8,91.9c0,50.8-41.1,92-91.8,92s-92-41.2-92-92H346.9c0,50.7-41.1,92-91.9,92c-50.7,0-91.8-41.2-91.8-92c0-50.8,41.1-91.9,91.8-91.9h83L161.2,201.3H55.9c-25.4,0-45.9-20.6-45.9-45.9c0-25.4,20.6-45.9,45.9-45.9h137.9c20.1,0,36.9,12.9,43.2,30.9l0.2-0.1l26.7,76.4h680.3c25.4,0,45.9,20.6,45.9,45.9C990.1,269.3,988.5,275.6,985.9,281.4z"/></g>
</svg>